<svg
  width="71"
  height="97"
  viewBox="0 0 71 97"
  fill="none"
  xmlns="http://www.w3.org/2000/svg"
>
  <path
    d="M5.5 86V33C5.5 27.201 10.201 22.5 16 22.5H55C60.799 22.5 65.5 27.201 65.5 33V86C65.5 91.799 60.799 96.5 55 96.5H16C10.201 96.5 5.5 91.799 5.5 86Z"
    fill="#DC5B5B"
    stroke="white"
  />
  <path
    d="M18 13.8889C37.9999 -6.11111 53 13.8889 53 13.8889"
    stroke="#DC5B5B"
    stroke-width="3"
  />
  <path
    d="M4 22.75H67C68.7949 22.75 70.25 24.2051 70.25 26V27C70.25 28.7949 68.7949 30.25 67 30.25H4C2.20507 30.25 0.75 28.7949 0.75 27V26C0.75 24.2051 2.20507 22.75 4 22.75Z"
    fill="#DC5B5B"
    stroke="white"
    stroke-width="1.5"
  />
  <path
    d="M68.25 22C68.25 22.1092 68.1905 22.3253 67.8254 22.6448C67.4643 22.9609 66.8879 23.3006 66.075 23.6448C64.4551 24.3308 62.0654 24.9654 59.0559 25.5044C53.0491 26.5802 44.7204 27.25 35.5 27.25C26.2796 27.25 17.9509 26.5802 11.9441 25.5044C8.93465 24.9654 6.54487 24.3308 4.92505 23.6448C4.11208 23.3006 3.53566 22.9609 3.17456 22.6448C2.80948 22.3253 2.75 22.1092 2.75 22C2.75 21.8908 2.80948 21.6747 3.17456 21.3552C3.53566 21.0391 4.11208 20.6994 4.92505 20.3552C6.54487 19.6692 8.93465 19.0346 11.9441 18.4956C17.9509 17.4198 26.2796 16.75 35.5 16.75C44.7204 16.75 53.0491 17.4198 59.0559 18.4956C62.0654 19.0346 64.4551 19.6692 66.075 20.3552C66.8879 20.6994 67.4643 21.0391 67.8254 21.3552C68.1905 21.6747 68.25 21.8908 68.25 22Z"
    fill="#DC5B5B"
    stroke="white"
    stroke-width="1.5"
  />
  <path
    d="M43.25 4.5C43.25 5.32794 42.603 6.25492 41.1595 7.01914C39.7495 7.7656 37.7499 8.25 35.5 8.25C33.2501 8.25 31.2505 7.7656 29.8405 7.01914C28.397 6.25492 27.75 5.32794 27.75 4.5C27.75 3.67206 28.397 2.74508 29.8405 1.98086C31.2505 1.2344 33.2501 0.75 35.5 0.75C37.7499 0.75 39.7495 1.2344 41.1595 1.98086C42.603 2.74508 43.25 3.67206 43.25 4.5Z"
    fill="#DC5B5B"
    stroke="white"
    stroke-width="1.5"
  />
  <rect x="17" y="34" width="2" height="44" rx="1" fill="white" />
  <rect x="29" y="46" width="2" height="43" rx="1" fill="white" />
  <rect x="41" y="46" width="2" height="43" rx="1" fill="white" />
  <rect x="53" y="34" width="2" height="44" rx="1" fill="white" />
</svg>
